# xmcd
#
# Track frame offsets:
#	150
#	11025
#	21150
#	33975
#	44475
#	54075
#	65325
#	80775
#	94950
#	112875
#	123150
#	133575
#
# Disc length: 1919 seconds
#
# Revision: 0
# Processed by: cddbd v1.5.2PL0 Copyright (c) Steve Scherf et al.
# Submitted via: dBpowerAMP V4.0
#
DISCID=98077d0c
DTITLE=Various Artist - Good Ole Country Christmas
DYEAR=1990
DGENRE=Country Christmas
TTITLE0=White Christmas/Charlie Rich
TTITLE1=Joy To The World/Tammy Wynette
TTITLE2=O Little Town Of Bethleham/George Jones
TTITLE3=Silver Bells/Tanya Tucker
TTITLE4=Soon It Will Be Christmas Day/Lynn Anderson
TTITLE5=I Heard The Bells On Christmas Day/Johnny Cash
TTITLE6=What Child Is This/Jody Miller
TTITLE7=Hark! The Harold Angels Sing/Marty Robbins
TTITLE8=The Little Drummer Boy/Ray Price
TTITLE9=Oh Holy Night/Jody Miller
TTITLE10=It Came Upon A Midnight Clear/Chuck Wagon Gang
TTITLE11=Silent Night/Carl Smith
EXTD=Country Christmas\nCBS Select BUK 50229
EXTT0=
EXTT1=
EXTT2=
EXTT3=
EXTT4=
EXTT5=
EXTT6=
EXTT7=
EXTT8=
EXTT9=
EXTT10=
EXTT11=
PLAYORDER=
